<svg width="30" height="30" viewBox="0 0 30 30" fill="none" xmlns="http://www.w3.org/2000/svg">
<path d="M20.3998 14.4C16.7608 14.4 13.7998 17.361 13.7998 21C13.7998 24.639 16.7608 27.6 20.3998 27.6C24.0388 27.6 26.9998 24.639 26.9998 21C26.9998 17.361 24.0388 14.4 20.3998 14.4ZM20.3998 26.4C17.4208 26.4 14.9998 23.976 14.9998 21C14.9998 18.024 17.4208 15.6 20.3998 15.6C23.3788 15.6 25.7998 18.024 25.7998 21C25.7998 23.976 23.3788 26.4 20.3998 26.4Z" fill="#757575"/>
<path d="M12 26.4H6C5.007 26.4 4.2 25.593 4.2 24.6V12H25.2C25.53 12 25.8 11.73 25.8 11.4V7.79999C25.8 6.14699 24.453 4.79999 22.8 4.79999H19.8V2.99999C19.8 2.66999 19.53 2.39999 19.2 2.39999C18.87 2.39999 18.6 2.66999 18.6 2.99999V4.79999H10.2V2.99999C10.2 2.66999 9.93 2.39999 9.6 2.39999C9.27 2.39999 9 2.66999 9 2.99999V4.79999H6C4.347 4.79999 3 6.14699 3 7.79999V24.6C3 26.253 4.347 27.6 6 27.6H12C12.33 27.6 12.6 27.33 12.6 27C12.6 26.67 12.33 26.4 12 26.4ZM4.2 7.79999C4.2 6.80699 5.007 5.99999 6 5.99999H9V7.79999C9 8.12999 9.27 8.39999 9.6 8.39999C9.93 8.39999 10.2 8.12999 10.2 7.79999V5.99999H18.6V7.79999C18.6 8.12999 18.87 8.39999 19.2 8.39999C19.53 8.39999 19.8 8.12999 19.8 7.79999V5.99999H22.8C23.793 5.99999 24.6 6.80699 24.6 7.79999V10.8H4.2V7.79999Z" fill="#757575"/>
<path d="M20.9998 20.751V18.9C20.9998 18.57 20.7298 18.3 20.3998 18.3C20.0698 18.3 19.7998 18.57 19.7998 18.9V21C19.7998 21.159 19.8628 21.312 19.9768 21.423L21.4768 22.923C21.5938 23.04 21.7468 23.1 21.8998 23.1C22.0528 23.1 22.2058 23.04 22.3228 22.923C22.5568 22.689 22.5568 22.308 22.3228 22.074L20.9998 20.751Z" fill="#757575"/>
</svg>
