<svg width="20" height="20" viewBox="0 0 20 20" fill="none" xmlns="http://www.w3.org/2000/svg">
<g clip-path="url(#clip0_836_4737)">
<path d="M10.0012 3.77416C11.9587 2.01667 14.9837 2.075 16.8695 3.96417C18.7545 5.85416 18.8195 8.86416 17.0662 10.8275L9.9995 17.9042L2.9345 10.8275C1.18116 8.86416 1.247 5.84916 3.13116 3.96417C5.01866 2.0775 8.03783 2.01417 10.0012 3.77416ZM15.6895 5.14166C14.4395 3.89 12.4228 3.83917 11.1145 5.01417L10.002 6.0125L8.88866 5.015C7.57616 3.83833 5.56366 3.89 4.31033 5.14333C3.06866 6.385 3.00616 8.3725 4.15033 9.68583L10.0003 15.545L15.8503 9.68666C16.9953 8.3725 16.9328 6.3875 15.6895 5.14166Z" fill="white"/>
</g>
<defs>
<clipPath id="clip0_836_4737">
<rect width="20" height="20" fill="white"/>
</clipPath>
</defs>
</svg>
