<svg width="16" height="16" viewBox="0 0 16 16" fill="none" xmlns="http://www.w3.org/2000/svg">
<g id="Group">
<path id="Vector" d="M6.22794 12.5214L4.9406 12.1761L5.46527 10.2167C4.67991 9.92709 3.95001 9.50498 3.30727 8.96874L1.87194 10.4047L0.928602 9.46141L2.3646 8.02607C1.55399 7.05524 1.00933 5.89058 0.783936 4.64607L2.09594 4.40674C2.60194 7.20807 5.0526 9.33341 7.99994 9.33341C10.9466 9.33341 13.3979 7.20807 13.9039 4.40674L15.2159 4.6454C14.9908 5.89008 14.4464 7.05498 13.6359 8.02607L15.0713 9.46141L14.1279 10.4047L12.6926 8.96874C12.0499 9.50498 11.32 9.92709 10.5346 10.2167L11.0593 12.1767L9.77194 12.5214L9.2466 10.5614C8.4215 10.7028 7.57837 10.7028 6.75327 10.5614L6.22794 12.5214Z" fill="#757575"/>
</g>
</svg>
