<svg width="17" height="16" viewBox="0 0 17 16" fill="none" xmlns="http://www.w3.org/2000/svg">
<g id="Group">
<path id="Vector" d="M8.50035 3.01933C10.0663 1.61333 12.4863 1.66 13.995 3.17133C15.503 4.68333 15.555 7.09133 14.1523 8.662L8.49901 14.3233L2.84701 8.662C1.44435 7.09133 1.49701 4.67933 3.00435 3.17133C4.51435 1.662 6.92968 1.61133 8.50035 3.01933ZM13.051 4.11333C12.051 3.112 10.4377 3.07133 9.39101 4.01133L8.50101 4.81L7.61035 4.012C6.56035 3.07067 4.95035 3.112 3.94768 4.11467C2.95435 5.108 2.90435 6.698 3.81968 7.74867L8.49968 12.436L13.1797 7.74933C14.0957 6.698 14.0457 5.11 13.051 4.11333Z" fill="#FFD100"/>
</g>
</svg>
