<svg width="20" height="20" viewBox="0 0 20 20" fill="none" xmlns="http://www.w3.org/2000/svg">
<g id="Group">
<path id="Vector" d="M5.14199 15C5.31416 14.5121 5.63344 14.0895 6.05583 13.7907C6.47821 13.4918 6.9829 13.3313 7.50033 13.3313C8.01775 13.3313 8.52244 13.4918 8.94483 13.7907C9.36721 14.0895 9.68649 14.5121 9.85866 15H18.3337V16.6667H9.85866C9.68649 17.1546 9.36721 17.5771 8.94483 17.876C8.52244 18.1749 8.01775 18.3354 7.50033 18.3354C6.9829 18.3354 6.47821 18.1749 6.05583 17.876C5.63344 17.5771 5.31416 17.1546 5.14199 16.6667H1.66699V15H5.14199ZM10.142 9.16667C10.3142 8.67873 10.6334 8.2562 11.0558 7.95733C11.4782 7.65846 11.9829 7.49796 12.5003 7.49796C13.0178 7.49796 13.5224 7.65846 13.9448 7.95733C14.3672 8.2562 14.6865 8.67873 14.8587 9.16667H18.3337V10.8333H14.8587C14.6865 11.3213 14.3672 11.7438 13.9448 12.0427C13.5224 12.3415 13.0178 12.502 12.5003 12.502C11.9829 12.502 11.4782 12.3415 11.0558 12.0427C10.6334 11.7438 10.3142 11.3213 10.142 10.8333H1.66699V9.16667H10.142ZM5.14199 3.33334C5.31416 2.84539 5.63344 2.42286 6.05583 2.12399C6.47821 1.82512 6.9829 1.66463 7.50033 1.66463C8.01775 1.66463 8.52244 1.82512 8.94483 2.12399C9.36721 2.42286 9.68649 2.84539 9.85866 3.33334H18.3337V5H9.85866C9.68649 5.48795 9.36721 5.91047 8.94483 6.20934C8.52244 6.50821 8.01775 6.66871 7.50033 6.66871C6.9829 6.66871 6.47821 6.50821 6.05583 6.20934C5.63344 5.91047 5.31416 5.48795 5.14199 5H1.66699V3.33334H5.14199ZM7.50033 5C7.72134 5 7.9333 4.9122 8.08958 4.75592C8.24586 4.59964 8.33366 4.38768 8.33366 4.16667C8.33366 3.94566 8.24586 3.73369 8.08958 3.57741C7.9333 3.42113 7.72134 3.33334 7.50033 3.33334C7.27931 3.33334 7.06735 3.42113 6.91107 3.57741C6.75479 3.73369 6.66699 3.94566 6.66699 4.16667C6.66699 4.38768 6.75479 4.59964 6.91107 4.75592C7.06735 4.9122 7.27931 5 7.50033 5ZM12.5003 10.8333C12.7213 10.8333 12.9333 10.7455 13.0896 10.5893C13.2459 10.433 13.3337 10.221 13.3337 10C13.3337 9.77899 13.2459 9.56703 13.0896 9.41075C12.9333 9.25447 12.7213 9.16667 12.5003 9.16667C12.2793 9.16667 12.0674 9.25447 11.9111 9.41075C11.7548 9.56703 11.667 9.77899 11.667 10C11.667 10.221 11.7548 10.433 11.9111 10.5893C12.0674 10.7455 12.2793 10.8333 12.5003 10.8333ZM7.50033 16.6667C7.72134 16.6667 7.9333 16.5789 8.08958 16.4226C8.24586 16.2663 8.33366 16.0543 8.33366 15.8333C8.33366 15.6123 8.24586 15.4004 8.08958 15.2441C7.9333 15.0878 7.72134 15 7.50033 15C7.27931 15 7.06735 15.0878 6.91107 15.2441C6.75479 15.4004 6.66699 15.6123 6.66699 15.8333C6.66699 16.0543 6.75479 16.2663 6.91107 16.4226C7.06735 16.5789 7.27931 16.6667 7.50033 16.6667Z" fill="#313131"/>
</g>
</svg>
