<svg width="30" height="30" viewBox="0 0 30 30" fill="none" xmlns="http://www.w3.org/2000/svg">
<g clip-path="url(#clip0_836_4772)">
<path d="M19.375 14.125L19.435 14.045L19.375 14L19.315 14.045L19.375 14.125ZM19.375 14.125L19.3149 14.0451L19.3148 14.0452L19.3142 14.0456L19.3122 14.0471L19.3043 14.0531L19.2744 14.0761C19.2484 14.0963 19.2103 14.1261 19.162 14.165C19.0653 14.2426 18.9275 14.3563 18.7623 14.5009C18.4319 14.79 17.9913 15.2031 17.5503 15.6992C16.673 16.6862 15.775 18.023 15.775 19.375C15.775 21.3552 17.3948 22.975 19.375 22.975C21.3552 22.975 22.975 21.3552 22.975 19.375C22.975 18.023 22.077 16.6862 21.1997 15.6992C20.7587 15.2031 20.3181 14.79 19.9877 14.5009C19.8225 14.3563 19.6847 14.2426 19.588 14.165C19.5397 14.1261 19.5016 14.0963 19.4756 14.0761L19.4457 14.0531L19.4378 14.0471L19.4358 14.0456L19.4352 14.0452L19.4351 14.0451L19.375 14.125ZM19.375 21.9C17.9719 21.9 16.85 20.7781 16.85 19.375C16.85 18.7062 17.2001 17.9543 17.7068 17.2341C18.1924 16.5438 18.8129 15.8952 19.375 15.3958C19.9371 15.8952 20.5576 16.5438 21.0432 17.2341C21.5499 17.9543 21.9 18.7062 21.9 19.375C21.9 20.7781 20.7781 21.9 19.375 21.9Z" fill="#757575" stroke="#757575" stroke-width="0.2"/>
<path d="M18.8332 8.45429L18.2207 7.84179C18.0067 7.62774 17.6808 7.62774 17.4668 7.84179C17.2527 8.05584 17.2527 8.38166 17.4668 8.59571L18.0793 9.20821L18.6918 9.82071C18.9058 10.0348 19.2317 10.0348 19.4457 9.82071C19.6598 9.60666 19.6598 9.28084 19.4457 9.06679L18.8332 8.45429Z" fill="#757575" stroke="#757575" stroke-width="0.2"/>
<path d="M24.625 3.525H14.125C13.5739 3.525 13.15 3.94894 13.15 4.5V11.0625C13.15 11.3511 13.3989 11.6 13.6875 11.6H14.125H24.625H25.0625C25.3511 11.6 25.6 11.3511 25.6 11.0625V4.5C25.6 3.94894 25.1761 3.525 24.625 3.525ZM15.975 10.525V9.75C15.975 7.88023 17.5052 6.35 19.375 6.35C21.2448 6.35 22.775 7.88023 22.775 9.75V10.525H15.975ZM24.525 10.525H23.85V9.75C23.85 7.27394 21.8511 5.275 19.375 5.275C16.8989 5.275 14.9 7.27394 14.9 9.75V10.525H14.225V4.6H24.525V10.525Z" fill="#757575" stroke="#757575" stroke-width="0.2"/>
<path d="M5.94596 1.54179L5.94513 1.54263L2.27096 5.30429C2.27082 5.30443 2.27068 5.30457 2.27054 5.30471C1.49864 6.07698 1.39195 7.22655 1.92336 8.10326C1.25173 8.81681 0.9 9.70567 0.9 10.625V25.5C0.9 27.0136 2.11144 28.225 3.625 28.225H4.5C6.01356 28.225 7.225 27.0136 7.225 25.5V16.75C7.225 15.3469 8.34689 14.225 9.75 14.225H10.525V18.5V28.025H10.1875C9.89894 28.025 9.65 28.2739 9.65 28.5625C9.65 28.8511 9.89894 29.1 10.1875 29.1H28.5625C28.8511 29.1 29.1 28.8511 29.1 28.5625C29.1 28.2739 28.8511 28.025 28.5625 28.025H28.225V18.5V11.5V4.5C28.225 2.51977 26.6052 0.9 24.625 0.9H14.125C12.1448 0.9 10.525 2.51977 10.525 4.5V11.5V13.15H9.75C7.76977 13.15 6.15 14.7698 6.15 16.75V25.5C6.15 26.4073 5.40727 27.15 4.5 27.15H3.625C2.71773 27.15 1.975 26.4073 1.975 25.5V10.625C1.975 9.99296 2.2175 9.35929 2.67805 8.85707C3.55501 9.38644 4.73122 9.28095 5.47556 8.50752L6.40821 7.57488C6.97226 7.01082 6.97226 6.13084 6.40821 5.56679C6.27226 5.43084 6.27226 5.23166 6.40821 5.09571L7.95404 3.54988C8.5181 2.98582 8.5181 2.10584 7.95404 1.54179C7.38999 0.977737 6.51001 0.977737 5.94596 1.54179ZM3.02283 6.0602L3.02286 6.06023L3.02488 6.05821L6.72904 2.35404C6.86499 2.2181 7.06418 2.2181 7.20012 2.35404C7.33607 2.48999 7.33607 2.68918 7.20012 2.82512L5.65429 4.37096C5.09024 4.93501 5.09024 5.81499 5.65429 6.37904C5.79024 6.51499 5.79024 6.71417 5.65429 6.85012L4.72096 7.78346C4.23534 8.26907 3.4827 8.2694 2.99672 7.78446C2.53747 7.29708 2.54074 6.5155 3.02283 6.0602ZM27.15 11.5V18.5V28.025H11.6V18.5V11.5V4.5C11.6 3.09689 12.7219 1.975 14.125 1.975H24.625C26.0281 1.975 27.15 3.09689 27.15 4.5V11.5Z" fill="#757575" stroke="#757575" stroke-width="0.2"/>
</g>
<defs>
<clipPath id="clip0_836_4772">
<rect width="30" height="30" fill="white"/>
</clipPath>
</defs>
</svg>
