<svg width="21" height="20" viewBox="0 0 21 20" fill="none" xmlns="http://www.w3.org/2000/svg">
<g clip-path="url(#clip0_830_12190)">
<path d="M3.83317 12.5001H5.49984V16.6667H15.4998V3.33341H5.49984V7.50008H3.83317V2.50008C3.83317 2.27907 3.92097 2.06711 4.07725 1.91083C4.23353 1.75455 4.44549 1.66675 4.6665 1.66675H16.3332C16.5542 1.66675 16.7661 1.75455 16.9224 1.91083C17.0787 2.06711 17.1665 2.27907 17.1665 2.50008V17.5001C17.1665 17.7211 17.0787 17.9331 16.9224 18.0893C16.7661 18.2456 16.5542 18.3334 16.3332 18.3334H4.6665C4.44549 18.3334 4.23353 18.2456 4.07725 18.0893C3.92097 17.9331 3.83317 17.7211 3.83317 17.5001V12.5001ZM8.83317 9.16675V6.66675L12.9998 10.0001L8.83317 13.3334V10.8334H2.1665V9.16675H8.83317Z" fill="#313131"/>
</g>
<defs>
<clipPath id="clip0_830_12190">
<rect width="20" height="20" fill="white" transform="translate(0.5)"/>
</clipPath>
</defs>
</svg>
