<svg width="21" height="20" viewBox="0 0 21 20" fill="none" xmlns="http://www.w3.org/2000/svg">
<g id="Group">
<path id="Vector" d="M3.00033 2.5H18.0003C18.2213 2.5 18.4333 2.5878 18.5896 2.74408C18.7459 2.90036 18.8337 3.11232 18.8337 3.33333V16.6667C18.8337 16.8877 18.7459 17.0996 18.5896 17.2559C18.4333 17.4122 18.2213 17.5 18.0003 17.5H3.00033C2.77931 17.5 2.56735 17.4122 2.41107 17.2559C2.25479 17.0996 2.16699 16.8877 2.16699 16.6667V3.33333C2.16699 3.11232 2.25479 2.90036 2.41107 2.74408C2.56735 2.5878 2.77931 2.5 3.00033 2.5ZM17.167 6.03167L10.5603 11.9483L3.83366 6.01333V15.8333H17.167V6.03167ZM4.25949 4.16667L10.5512 9.71833L16.752 4.16667H4.25949Z" fill="#313131"/>
</g>
</svg>
