<svg width="20" height="20" viewBox="0 0 20 20" fill="none" xmlns="http://www.w3.org/2000/svg">
<g id="Group">
<path id="Vector" d="M4.02366 17.5L4.00699 17.5167L3.98949 17.5H2.49366C2.27434 17.4998 2.06407 17.4125 1.90907 17.2573C1.75406 17.1022 1.66699 16.8918 1.66699 16.6725V3.3275C1.66852 3.10865 1.75608 2.89918 1.91075 2.74435C2.06543 2.58951 2.27481 2.50175 2.49366 2.5H17.507C17.9637 2.5 18.3337 2.87083 18.3337 3.3275V16.6725C18.3321 16.8914 18.2446 17.1008 18.0899 17.2557C17.9352 17.4105 17.7258 17.4983 17.507 17.5H4.02366ZM16.667 12.5V4.16667H3.33366V15.8333L11.667 7.5L16.667 12.5ZM16.667 14.8567L11.667 9.85667L5.69033 15.8333H16.667V14.8567ZM6.66699 9.16667C6.22497 9.16667 5.80104 8.99107 5.48848 8.67851C5.17592 8.36595 5.00033 7.94203 5.00033 7.5C5.00033 7.05797 5.17592 6.63405 5.48848 6.32149C5.80104 6.00893 6.22497 5.83333 6.66699 5.83333C7.10902 5.83333 7.53294 6.00893 7.8455 6.32149C8.15806 6.63405 8.33366 7.05797 8.33366 7.5C8.33366 7.94203 8.15806 8.36595 7.8455 8.67851C7.53294 8.99107 7.10902 9.16667 6.66699 9.16667Z" fill="white"/>
</g>
</svg>
