<svg width="21" height="20" viewBox="0 0 21 20" fill="none" xmlns="http://www.w3.org/2000/svg">
<g id="Group">
<path id="Vector" d="M7.16667 3.33366H18V5.00033H7.16667V3.33366ZM4.25 5.41699C3.91848 5.41699 3.60054 5.2853 3.36612 5.05088C3.1317 4.81646 3 4.49851 3 4.16699C3 3.83547 3.1317 3.51753 3.36612 3.28311C3.60054 3.04869 3.91848 2.91699 4.25 2.91699C4.58152 2.91699 4.89946 3.04869 5.13388 3.28311C5.3683 3.51753 5.5 3.83547 5.5 4.16699C5.5 4.49851 5.3683 4.81646 5.13388 5.05088C4.89946 5.2853 4.58152 5.41699 4.25 5.41699ZM4.25 11.2503C3.91848 11.2503 3.60054 11.1186 3.36612 10.8842C3.1317 10.6498 3 10.3318 3 10.0003C3 9.6688 3.1317 9.35086 3.36612 9.11644C3.60054 8.88202 3.91848 8.75033 4.25 8.75033C4.58152 8.75033 4.89946 8.88202 5.13388 9.11644C5.3683 9.35086 5.5 9.6688 5.5 10.0003C5.5 10.3318 5.3683 10.6498 5.13388 10.8842C4.89946 11.1186 4.58152 11.2503 4.25 11.2503ZM4.25 17.0003C3.91848 17.0003 3.60054 16.8686 3.36612 16.6342C3.1317 16.3998 3 16.0818 3 15.7503C3 15.4188 3.1317 15.1009 3.36612 14.8664C3.60054 14.632 3.91848 14.5003 4.25 14.5003C4.58152 14.5003 4.89946 14.632 5.13388 14.8664C5.3683 15.1009 5.5 15.4188 5.5 15.7503C5.5 16.0818 5.3683 16.3998 5.13388 16.6342C4.89946 16.8686 4.58152 17.0003 4.25 17.0003ZM7.16667 9.16699H18V10.8337H7.16667V9.16699ZM7.16667 15.0003H18V16.667H7.16667V15.0003Z" fill="#313131"/>
</g>
</svg>
