<svg width="31" height="30" viewBox="0 0 31 30" fill="none" xmlns="http://www.w3.org/2000/svg">
<path d="M16.1113 3.05273C15.3263 3.05277 14.255 3.21329 12.9912 3.72559H12.9902C11.7848 4.21118 11.1948 4.96422 10.9355 5.83203C10.7058 6.60145 10.7323 7.47183 10.8467 8.34766L10.9014 8.72266V8.72461C10.9532 9.08748 11.005 9.43341 11.0439 9.68848C11.0634 9.81601 11.0795 9.92122 11.0908 9.99414C11.0965 10.0305 11.1015 10.0588 11.1045 10.0781C11.106 10.0878 11.1066 10.0956 11.1074 10.1006L11.1084 10.1064C11.1544 10.3825 11.0139 10.6074 10.8047 10.7373H10.8057H10.8066H10.8076C10.8051 10.7395 10.7993 10.7438 10.792 10.752C10.7773 10.7684 10.7548 10.7988 10.7305 10.8457C10.6822 10.9389 10.626 11.1049 10.626 11.3779C10.6605 11.92 10.7366 12.1936 10.8193 12.3447C10.8954 12.4836 10.9793 12.5271 11.0996 12.5957C11.2235 12.6492 11.3889 12.7278 11.5361 12.8799C11.6894 13.0384 11.8138 13.2663 11.8701 13.6035L11.9512 14.0146C12.0359 14.3904 12.1316 14.6654 12.2275 14.8789C12.3552 15.163 12.4858 15.3428 12.6074 15.5166C12.7286 15.6898 12.8509 15.8679 12.9404 16.1035C13.0304 16.3404 13.084 16.6274 13.084 17.0225C13.084 18.2917 12.8194 19.2341 12.1016 20.0156C11.3918 20.7883 10.2539 21.3872 8.55371 22.0117H8.55273C7.36489 22.4421 6.48247 22.8945 5.89941 23.3643C5.31667 23.8338 5.05085 24.3056 5.05078 24.7793V26.9844H26.3594V24.71C26.3593 24.2543 26.0936 23.7823 25.5098 23.3076C24.9265 22.8334 24.0436 22.3725 22.8564 21.9424H22.8555C21.1556 21.3179 20.0183 20.7188 19.3086 19.9463C18.5907 19.1648 18.3252 18.2225 18.3252 16.9531C18.3252 16.5581 18.3788 16.271 18.4688 16.0342C18.5583 15.7985 18.6815 15.6205 18.8027 15.4473C18.922 15.2769 19.0452 15.0962 19.1689 14.8115C19.2934 14.5252 19.4203 14.1289 19.54 13.5303C19.5969 13.1938 19.7215 12.9748 19.875 12.8213C20.0231 12.6732 20.1963 12.5918 20.3057 12.5293L20.3125 12.5244L20.3203 12.5215C20.3826 12.4948 20.4285 12.4741 20.4707 12.4434C20.51 12.4147 20.5505 12.3735 20.5898 12.3018C20.6726 12.1506 20.7488 11.8673 20.7832 11.3027C20.7824 11.0521 20.7281 10.8968 20.6807 10.8086C20.6566 10.7638 20.633 10.7351 20.6182 10.7188L20.6025 10.7031C20.3808 10.5943 20.2559 10.331 20.3018 10.1016C20.4036 9.59209 20.5325 8.5472 20.5068 7.48145C20.494 6.94881 20.4425 6.4154 20.332 5.94336C20.2211 5.46946 20.0531 5.06925 19.8154 4.79199L19.8145 4.79004C19.5699 4.49664 19.361 4.37958 19.1855 4.33301C19.0048 4.28504 18.8431 4.30622 18.6631 4.32422L18.6553 4.3252H18.6055L18.5859 4.34473L18.5459 4.35547C18.4636 4.37602 18.3705 4.38615 18.2803 4.38086C18.1918 4.37565 18.0929 4.35456 18.0107 4.2998V4.29883C17.8217 4.18964 17.7029 4.01397 17.6201 3.83008C17.5433 3.65929 17.4898 3.46637 17.4424 3.29199C17.421 3.27733 17.3889 3.2577 17.3418 3.2373C17.271 3.2067 17.1761 3.17517 17.0586 3.14746C16.8238 3.09211 16.5041 3.05273 16.1113 3.05273ZM21.915 11.3184H21.9141C21.8614 12.1083 21.7201 12.6037 21.5156 12.9365C21.3075 13.2753 21.044 13.4302 20.793 13.5557L20.7822 13.5605L20.7256 13.4209L20.7812 13.5605C20.7408 13.5767 20.7182 13.5874 20.7051 13.5957L20.6953 13.6035L20.6943 13.6045C20.694 13.6052 20.6931 13.6066 20.6924 13.6084C20.6907 13.6125 20.6883 13.6195 20.6855 13.6299C20.6797 13.652 20.6738 13.6787 20.665 13.7227L20.666 13.7236C20.543 14.4263 20.3839 14.915 20.2178 15.2832C20.0517 15.6513 19.8795 15.8956 19.7422 16.1016L19.7383 16.1084C19.6351 16.246 19.5682 16.3441 19.5244 16.4609C19.4811 16.5766 19.4561 16.7215 19.4561 16.9531C19.4561 17.9076 19.6015 18.5732 20.1191 19.1475C20.6464 19.7322 21.576 20.2413 23.2012 20.8291H23.2021C24.6124 21.3514 25.6797 21.9225 26.3965 22.5547C27.1159 23.1893 27.4902 23.8943 27.4902 24.6758V27.5156H27.4893C27.5237 27.8758 27.2488 28.1503 26.9248 28.1504H4.4502C4.12495 28.1504 3.84961 27.8751 3.84961 27.5498V24.71C3.84969 23.9122 4.22386 23.1989 4.94434 22.5635C5.57201 22.0099 6.46772 21.5102 7.62695 21.0557L8.13965 20.8633C9.76478 20.2754 10.6945 19.7665 11.2217 19.1816C11.7392 18.6075 11.8837 17.9424 11.8838 16.9883C11.8838 16.7568 11.8593 16.6206 11.8164 16.5098C11.7722 16.3955 11.7061 16.2989 11.6006 16.1406C11.3104 15.7416 10.9558 15.1667 10.6748 13.7617C10.6657 13.7162 10.6606 13.6911 10.6553 13.6729C10.6527 13.6641 10.6512 13.6598 10.6504 13.6582C10.6504 13.6581 10.646 13.6535 10.6289 13.6416C10.6106 13.6289 10.5861 13.6134 10.5469 13.5898L10.3574 13.4883C10.1678 13.3765 9.98027 13.227 9.82422 12.9766C9.61957 12.6481 9.47848 12.1606 9.42578 11.3877L9.4248 11.3779H9.42578C9.42578 10.672 9.64535 10.2308 9.86719 9.97949C9.83076 9.70654 9.76873 9.32525 9.7041 8.87305C9.53026 7.7777 9.42979 6.53735 9.77344 5.4082C10.1203 4.26862 10.9153 3.25609 12.4971 2.61621C13.8815 2.05544 15.2093 1.82598 16.2627 1.85254C16.789 1.86582 17.252 1.94312 17.6211 2.0791C17.9421 2.19738 18.2044 2.36399 18.3682 2.58301L18.4316 2.68066L18.4365 2.68848C18.4717 2.75889 18.5111 2.8708 18.5186 2.96777C18.5263 2.99863 18.5344 3.02838 18.542 3.05664C18.5499 3.08612 18.5576 3.11538 18.5645 3.14258V3.14355C18.7634 3.11447 19.0428 3.09465 19.3672 3.17188C19.7131 3.25427 20.101 3.44347 20.4951 3.82812L20.665 4.00586L20.666 4.00781C21.3597 4.81103 21.5854 6.08603 21.6289 7.25098C21.6707 8.37113 21.5438 9.42569 21.4717 9.94336C21.6932 10.1934 21.915 10.6322 21.915 11.3086V11.3184Z" fill="#757575" stroke="#757575" stroke-width="0.3"/>
</svg>
