<svg width="31" height="30" viewBox="0 0 31 30" fill="none" xmlns="http://www.w3.org/2000/svg">
<path d="M19.748 2.84961C20.0855 2.84961 20.405 3.03223 20.5605 3.34082L20.6172 3.48047V3.48145L27.3672 25.9814H27.3662C27.4568 26.2575 27.3938 26.5565 27.2188 26.79C27.0404 27.0278 26.7953 27.1504 26.498 27.1504H4.74805C4.45099 27.1503 4.20658 27.0277 4.02832 26.79C3.84561 26.5464 3.82026 26.2737 3.87598 25.9951L3.87891 25.9814H3.87988L10.6299 3.48145V3.48047C10.7508 3.08804 11.1126 2.84976 11.498 2.84961H19.748ZM4.94922 26.0996H15.0986V22.125C15.0986 21.8423 15.3404 21.5998 15.623 21.5996C15.9059 21.5996 16.1484 21.8422 16.1484 22.125V26.0996H26.2969L19.6367 3.90039H16.1484V7.875C16.1484 8.15784 15.9059 8.40039 15.623 8.40039C15.3404 8.40019 15.0986 8.15772 15.0986 7.875V3.90039H11.6094L4.94922 26.0996ZM15.623 11.0996C15.9059 11.0996 16.1484 11.3422 16.1484 11.625V18.375C16.1484 18.6578 15.9059 18.9004 15.623 18.9004C15.3404 18.9002 15.0986 18.6577 15.0986 18.375V11.625C15.0986 11.3423 15.3404 11.0998 15.623 11.0996Z" fill="#757575" stroke="#757575" stroke-width="0.3"/>
</svg>
