<svg width="20" height="20" viewBox="0 0 20 20" fill="none" xmlns="http://www.w3.org/2000/svg">
<g id="Group">
<path id="Vector" d="M4.16634 1.66666H15.833C16.054 1.66666 16.266 1.75445 16.4223 1.91073C16.5785 2.06701 16.6663 2.27898 16.6663 2.49999V18.4525C16.6664 18.527 16.6465 18.6002 16.6088 18.6644C16.571 18.7286 16.5166 18.7815 16.4515 18.8176C16.3863 18.8536 16.3126 18.8716 16.2381 18.8695C16.1637 18.8675 16.0911 18.8455 16.028 18.8058L9.99967 15.025L3.97134 18.805C3.90831 18.8446 3.83583 18.8666 3.76143 18.8687C3.68702 18.8708 3.61341 18.8529 3.54825 18.8169C3.48309 18.7809 3.42876 18.7282 3.39091 18.6641C3.35306 18.6 3.33306 18.5269 3.33301 18.4525V2.49999C3.33301 2.27898 3.42081 2.06701 3.57709 1.91073C3.73337 1.75445 3.94533 1.66666 4.16634 1.66666ZM14.9997 3.33332H4.99967V16.1933L9.99967 13.0592L14.9997 16.1933V3.33332Z" fill="#313131"/>
</g>
</svg>
