<svg width="16" height="16" viewBox="0 0 16 16" fill="none" xmlns="http://www.w3.org/2000/svg">
<g id="Group">
<path id="Vector" d="M8.66667 9.33333H7.33333C6.23973 9.33291 5.16682 9.63143 4.23058 10.1966C3.29435 10.7618 2.5304 11.5721 2.02133 12.54C2.00703 12.3604 1.99991 12.1802 2 12C2 8.318 4.98467 5.33333 8.66667 5.33333V1.66667L15.6667 7.33333L8.66667 13V9.33333ZM7.33333 8H10V10.2053L13.5473 7.33333L10 4.46133V6.66667H8.66667C7.90017 6.6658 7.14253 6.83054 6.44559 7.14961C5.74866 7.46868 5.12888 7.93455 4.62867 8.51533C5.48955 8.17414 6.40731 7.99928 7.33333 8Z" fill="#FFD100"/>
</g>
</svg>
