<svg width="31" height="30" viewBox="0 0 31 30" fill="none" xmlns="http://www.w3.org/2000/svg">
<path d="M14.0071 18.0447L14.0071 18.0447L14.0081 18.0458L14.0373 18.075L14.0372 18.075L14.0407 18.0782C14.376 18.383 14.8074 18.6001 15.333 18.6001C16.3507 18.6001 17.183 17.7678 17.183 16.7501C17.183 16.2582 16.9984 15.7949 16.6579 15.4544L16.6287 15.4252L16.6287 15.4252L16.6276 15.4242C16.1231 14.9345 15.0052 14.1778 13.8522 13.4358C13.3001 13.0805 12.7395 12.7283 12.2297 12.408C11.6684 12.0553 11.1685 11.7413 10.8091 11.5042C10.5927 11.3602 10.307 11.3972 10.1289 11.5752C9.95088 11.7533 9.91388 12.0392 10.0581 12.2556L10.0581 12.2556L10.0592 12.2572C10.361 12.691 10.7787 13.3445 11.2393 14.0653C11.4892 14.4563 11.7517 14.867 12.0152 15.2733C12.7607 16.4224 13.5175 17.5403 14.0071 18.0447ZM15.8748 16.2083C16.031 16.3645 16.108 16.5724 16.108 16.7501C16.108 17.1907 15.7736 17.5251 15.333 17.5251C15.1286 17.5251 14.9478 17.4497 14.7888 17.3185C14.4616 16.9755 13.9876 16.2726 13.5142 15.5297C13.2982 15.1907 13.0824 14.8435 12.8825 14.522C12.7496 14.3082 12.6238 14.1058 12.5096 13.9247C12.6386 14.005 12.7785 14.0915 12.9259 14.1826C12.9508 14.198 12.9759 14.2136 13.0013 14.2293C13.3417 14.4398 13.7176 14.6728 14.0869 14.9093C14.829 15.3846 15.5338 15.8674 15.8748 16.2083Z" fill="#757575" stroke="#757575" stroke-width="0.2"/>
<path d="M13.4762 7.77153L13.4762 7.77152L13.4759 7.77049L12.8052 5.20432C12.7337 4.91978 12.4478 4.73907 12.1591 4.81126C11.8742 4.88248 11.6932 5.16858 11.7655 5.45753L11.7655 5.45753L11.7657 5.45857L12.4364 8.02474C12.5079 8.30927 12.7938 8.48999 13.0826 8.41779C13.3674 8.34658 13.5484 8.06048 13.4762 7.77153Z" fill="#757575" stroke="#757575" stroke-width="0.2"/>
<path d="M24.3405 14.8928L24.3405 14.8928L24.3418 14.8924L26.8787 14.2218C27.1631 14.1503 27.3438 13.8644 27.2716 13.5757C27.2004 13.2908 26.9143 13.1098 26.6253 13.1821L26.6253 13.1821L26.6243 13.1823L24.0581 13.8531C23.7633 13.9271 23.6247 14.2211 23.6942 14.4992C23.7654 14.784 24.0515 14.965 24.3405 14.8928Z" fill="#757575" stroke="#757575" stroke-width="0.2"/>
<path d="M18.9006 5.45884L18.9006 5.45884L18.901 5.45753C18.9732 5.16858 18.7922 4.88248 18.5074 4.81126C18.2186 4.73908 17.9328 4.91972 17.8613 5.20417L17.1906 7.74105L17.1906 7.74105L17.1903 7.74236C17.118 8.03132 17.299 8.31742 17.5839 8.38863C17.8726 8.46081 18.1585 8.28017 18.23 7.99572L18.9006 5.45884Z" fill="#757575" stroke="#757575" stroke-width="0.2"/>
<path d="M22.1992 10.6373L24.0659 8.77067C24.2799 8.55662 24.2799 8.2308 24.0659 8.01675C23.8518 7.80269 23.526 7.80269 23.312 8.01675L21.4453 9.88341C21.2313 10.0975 21.2313 10.4233 21.4453 10.6373C21.6594 10.8514 21.9852 10.8514 22.1992 10.6373Z" fill="#757575" stroke="#757575" stroke-width="0.2"/>
<path d="M20.5203 20.5737L20.5204 20.5736L20.5171 20.5692C20.3253 20.3135 20.0345 20.15 19.7079 20.15H10.9579C10.6314 20.15 10.3405 20.3135 10.1488 20.5692L10.1486 20.5691L10.1456 20.5737L8.39557 23.1987C8.2018 23.4893 8.16739 23.8793 8.36189 24.2065C8.52558 24.5307 8.85127 24.725 9.20794 24.725H9.23186H9.25579H9.27972H9.30364H9.32757H9.35149H9.37542H9.39934H9.42327H9.4472H9.47112H9.49505H9.51897H9.5429H9.56683H9.59075H9.61468H9.6386H9.66253H9.68645H9.71038H9.73431H9.75823H9.78216H9.80608H9.83001H9.85393H9.87786H9.90179H9.92571H9.94964H9.97356H9.99749H10.0214H10.0453H10.0693H10.0932H10.1171H10.141H10.165H10.1889H10.2128H10.2367H10.2607H10.2846H10.3085H10.3325H10.3564H10.3803H10.4042H10.4282H10.4521H10.476H10.4999H10.5239H10.5478H10.5717H10.5956H10.6196H10.6435H10.6674H10.6913H10.7153H10.7392H10.7631H10.787H10.811H10.8349H10.8588H10.8827H10.9067H10.9306H10.9545H10.9784H11.0024H11.0263H11.0502H11.0741H11.0981H11.122H11.1459H11.1699H11.1938H11.2177H11.2416H11.2656H11.2895H11.3134H11.3373H11.3613H11.3852H11.4091H11.433H11.457H11.4809H11.5048H11.5287H11.5527H11.5766H11.6005H11.6244H11.6484H11.6723H11.6962H11.7201H11.7441H11.768H11.7919H11.8158H11.8398H11.8637H11.8876H11.9116H11.9355H11.9594H11.9833H12.0073H12.0312H12.0551H12.079H12.103H12.1269H12.1508H12.1747H12.1987H12.2226H12.2465H12.2704H12.2944H12.3183H12.3422H12.3661H12.3901H12.414H12.4379H12.4618H12.4858H12.5097H12.5336H12.5575H12.5815H12.6054H12.6293H12.6533H12.6772H12.7011H12.725H12.749H12.7729H12.7968H12.8207H12.8447H12.8686H12.8925H12.9164H12.9404H12.9643H12.9882H13.0121H13.0361H13.06H13.0839H13.1078H13.1318H13.1557H13.1796H13.2035H13.2275H13.2514H13.2753H13.2992H13.3232H13.3471H13.371H13.395H13.4189H13.4428H13.4667H13.4907H13.5146H13.5385H13.5624H13.5864H13.6103H13.6342H13.6581H13.6821H13.706H13.7299H13.7538H13.7778H13.8017H13.8256H13.8495H13.8735H13.8974H13.9213H13.9452H13.9692H13.9931H14.017H14.0409H14.0649H14.0888H14.1127H14.1366H14.1606H14.1845H14.2084H14.2324H14.2563H14.2802H14.3041H14.3281H14.352H14.3759H14.3998H14.4238H14.4477H14.4716H14.4955H14.5195H14.5434H14.5673H14.5912H14.6152H14.6391H14.663H14.6869H14.7109H14.7348H14.7587H14.7826H14.8066H14.8305H14.8544H14.8783H14.9023H14.9262H14.9501H14.9741H14.998H15.0219H15.0458H15.0698H15.0937H15.1176H15.1415H15.1655H15.1894H15.2133H15.2372H15.2612H15.2851H15.309H15.3329H15.3569H15.3808H15.4047H15.4286H15.4526H15.4765H15.5004H15.5243H15.5483H15.5722H15.5961H15.62H15.644H15.6679H15.6918H15.7158H15.7397H15.7636H15.7875H15.8115H15.8354H15.8593H15.8832H15.9072H15.9311H15.955H15.9789H16.0029H16.0268H16.0507H16.0746H16.0986H16.1225H16.1464H16.1703H16.1943H16.2182H16.2421H16.266H16.29H16.3139H16.3378H16.3617H16.3857H16.4096H16.4335H16.4574H16.4814H16.5053H16.5292H16.5532H16.5771H16.601H16.6249H16.6489H16.6728H16.6967H16.7206H16.7446H16.7685H16.7924H16.8163H16.8403H16.8642H16.8881H16.912H16.936H16.9599H16.9838H17.0077H17.0317H17.0556H17.0795H17.1034H17.1274H17.1513H17.1752H17.1991H17.2231H17.247H17.2709H17.2949H17.3188H17.3427H17.3666H17.3906H17.4145H17.4384H17.4623H17.4863H17.5102H17.5341H17.558H17.582H17.6059H17.6298H17.6537H17.6777H17.7016H17.7255H17.7494H17.7734H17.7973H17.8212H17.8451H17.8691H17.893H17.9169H17.9408H17.9648H17.9887H18.0126H18.0366H18.0605H18.0844H18.1083H18.1323H18.1562H18.1801H18.204H18.228H18.2519H18.2758H18.2997H18.3237H18.3476H18.3715H18.3954H18.4194H18.4433H18.4672H18.4911H18.5151H18.539H18.5629H18.5868H18.6108H18.6347H18.6586H18.6825H18.7065H18.7304H18.7543H18.7783H18.8022H18.8261H18.85H18.874H18.8979H18.9218H18.9457H18.9697H18.9936H19.0175H19.0414H19.0654H19.0893H19.1132H19.1371H19.1611H19.185H19.2089H19.2328H19.2568H19.2807H19.3046H19.3285H19.3525H19.3764H19.4003H19.4242H19.4482H19.4721H19.496H19.52H19.5439H19.5678H19.5917H19.6157H19.6396H19.6635H19.6874H19.7114H19.7353H19.7592H19.7831H19.8071H19.831H19.8549H19.8788H19.9028H19.9267H19.9506H19.9745H19.9985H20.0224H20.0463H20.0702H20.0942H20.1181H20.142H20.1659H20.1899H20.2138H20.2377H20.2617H20.2856H20.3095H20.3334H20.3574H20.3813H20.4052H20.4291H20.4531H20.477H20.5009H20.5248H20.5488H20.5727H20.5966H20.6205H20.6445H20.6684H20.6923H20.7162H20.7402H20.7641H20.788H20.8119H20.8359H20.8598H20.8837H20.9076H20.9316H20.9555H20.9794H21.0033H21.0273H21.0512H21.0751H21.0991H21.123H21.1469H21.1708H21.1948H21.2187H21.2426H21.2665H21.2905H21.3144H21.3383H21.3622H21.3862H21.4101H21.434H21.4579C21.8159 24.725 22.1426 24.5293 22.3057 24.2031C22.4658 23.8828 22.4666 23.5256 22.2729 23.2027L22.273 23.2027L22.2703 23.1987L20.5203 20.5737ZM19.6544 21.225L21.2711 23.65H9.39479L11.0115 21.225H19.6544Z" fill="#757575" stroke="#757575" stroke-width="0.2"/>
<path d="M24.3417 18.6076L24.3417 18.6076L24.3404 18.6073C24.0515 18.535 23.7654 18.716 23.6942 19.0008C23.622 19.2896 23.8026 19.5754 24.0871 19.6469L26.624 20.3176L26.624 20.3176L26.6253 20.318C26.9137 20.3901 27.1993 20.2099 27.2711 19.9259C27.3086 19.7928 27.2786 19.6486 27.2095 19.5319C27.1398 19.4143 27.0247 19.315 26.8786 19.2783L24.3417 18.6076Z" fill="#757575" stroke="#757575" stroke-width="0.2"/>
<path d="M15.333 2.65C7.54861 2.65 1.23301 8.9656 1.23301 16.75C1.23301 20.2156 2.49578 23.5641 4.81619 26.1493C5.01217 26.3774 5.27416 26.475 5.53301 26.475H25.1038C25.3936 26.475 25.6258 26.3761 25.8205 26.1495C28.1703 23.5642 29.433 20.2155 29.433 16.75C29.433 8.9656 23.1174 2.65 15.333 2.65ZM28.358 16.75C28.358 20.0628 27.1253 23.0886 25.0592 25.4H5.60681C3.54068 23.0886 2.30801 20.0628 2.30801 16.75C2.30801 9.54273 8.12574 3.725 15.333 3.725C22.5403 3.725 28.358 9.54273 28.358 16.75Z" fill="#757575" stroke="#757575" stroke-width="0.2"/>
<path d="M6.32546 18.6073L6.32546 18.6072L6.32415 18.6076L3.78727 19.2783C3.50282 19.3498 3.32218 19.6356 3.39436 19.9244C3.46558 20.2092 3.75168 20.3902 4.04063 20.318L4.04063 20.318L4.04194 20.3176L6.57882 19.6469C6.86327 19.5754 7.04391 19.2896 6.97173 19.0008C6.90051 18.716 6.61441 18.535 6.32546 18.6073Z" fill="#757575" stroke="#757575" stroke-width="0.2"/>
<path d="M4.07123 13.1824L4.07124 13.1824L4.06993 13.1821C3.78097 13.1098 3.49487 13.2908 3.42366 13.5757C3.35148 13.8644 3.53212 14.1503 3.81657 14.2218L6.35345 14.8924L6.35345 14.8925L6.35475 14.8928C6.64371 14.965 6.92981 14.784 7.00102 14.4992L7.00173 14.4994L7.00324 14.4873C7.03687 14.2183 6.90282 13.9272 6.60812 13.8531L4.07123 13.1824Z" fill="#757575" stroke="#757575" stroke-width="0.2"/>
<path d="M8.46627 10.6373C8.68032 10.8514 9.00614 10.8514 9.22019 10.6373C9.43424 10.4233 9.43424 10.0975 9.22019 9.88341L7.35352 8.01675C7.13947 7.80269 6.81365 7.80269 6.5996 8.01675C6.38555 8.2308 6.38555 8.55662 6.5996 8.77067L8.46627 10.6373Z" fill="#757575" stroke="#757575" stroke-width="0.2"/>
</svg>
