<svg width="31" height="30" viewBox="0 0 31 30" fill="none" xmlns="http://www.w3.org/2000/svg">
<path d="M8.76699 4.9375C8.76699 3.1906 7.35139 1.775 5.60449 1.775C3.8576 1.775 2.44199 3.1906 2.44199 4.9375C2.44199 6.50322 3.57254 7.80893 5.06699 8.05681V14.125V15V21.0682C3.57254 21.3161 2.44199 22.6218 2.44199 24.1875C2.44199 25.9344 3.8576 27.35 5.60449 27.35C7.35139 27.35 8.76699 25.9344 8.76699 24.1875C8.76699 22.6218 7.63644 21.3161 6.14199 21.0682V15.1H15.567V21.0682C14.0725 21.3161 12.942 22.6218 12.942 24.1875C12.942 25.9344 14.3576 27.35 16.1045 27.35C17.8514 27.35 19.267 25.9344 19.267 24.1875C19.267 22.6218 18.1364 21.3161 16.642 21.0682V15.1H23.542C25.5222 15.1 27.142 13.4802 27.142 11.5V8.05681C28.6364 7.80893 29.767 6.50322 29.767 4.9375C29.767 3.1906 28.3514 1.775 26.6045 1.775C24.8576 1.775 23.442 3.1906 23.442 4.9375C23.442 6.50322 24.5725 7.80893 26.067 8.05681V11.5C26.067 12.9031 24.9451 14.025 23.542 14.025H16.642V8.05681C18.1364 7.80893 19.267 6.50322 19.267 4.9375C19.267 3.1906 17.8514 1.775 16.1045 1.775C14.3576 1.775 12.942 3.1906 12.942 4.9375C12.942 6.50322 14.0725 7.80893 15.567 8.05681V14.025H6.14199V8.05681C7.63644 7.80893 8.76699 6.50322 8.76699 4.9375ZM24.517 4.9375C24.517 3.7969 25.4639 2.85 26.6045 2.85C27.7451 2.85 28.692 3.7969 28.692 4.9375C28.692 6.0781 27.7451 7.025 26.6045 7.025C25.4639 7.025 24.517 6.0781 24.517 4.9375ZM14.017 24.1875C14.017 23.0469 14.9639 22.1 16.1045 22.1C17.2451 22.1 18.192 23.0469 18.192 24.1875C18.192 25.3281 17.2451 26.275 16.1045 26.275C14.9639 26.275 14.017 25.3281 14.017 24.1875ZM14.017 4.9375C14.017 3.7969 14.9639 2.85 16.1045 2.85C17.2451 2.85 18.192 3.7969 18.192 4.9375C18.192 6.0781 17.2451 7.025 16.1045 7.025C14.9639 7.025 14.017 6.0781 14.017 4.9375ZM3.51699 24.1875C3.51699 23.0469 4.46389 22.1 5.60449 22.1C6.7451 22.1 7.69199 23.0469 7.69199 24.1875C7.69199 25.3281 6.7451 26.275 5.60449 26.275C4.46389 26.275 3.51699 25.3281 3.51699 24.1875ZM3.51699 4.9375C3.51699 3.7969 4.46389 2.85 5.60449 2.85C6.7451 2.85 7.69199 3.7969 7.69199 4.9375C7.69199 6.0781 6.7451 7.025 5.60449 7.025C4.46389 7.025 3.51699 6.0781 3.51699 4.9375Z" fill="#757575" stroke="#757575" stroke-width="0.2"/>
</svg>
