<svg width="20" height="20" viewBox="0 0 20 20" fill="none" xmlns="http://www.w3.org/2000/svg">
<g id="Group">
<path id="Vector" d="M4.16732 1.66699H15.834C16.055 1.66699 16.267 1.75479 16.4232 1.91107C16.5795 2.06735 16.6673 2.27931 16.6673 2.50033V18.4528C16.6674 18.5273 16.6475 18.6005 16.6097 18.6647C16.5719 18.7289 16.5176 18.7818 16.4524 18.8179C16.3873 18.854 16.3136 18.8719 16.2391 18.8699C16.1646 18.8678 16.0921 18.8458 16.029 18.8062L10.0007 15.0253L3.97232 18.8053C3.90929 18.8449 3.83681 18.8669 3.7624 18.869C3.688 18.8711 3.61439 18.8532 3.54923 18.8173C3.48407 18.7813 3.42974 18.7285 3.39189 18.6644C3.35403 18.6003 3.33404 18.5273 3.33398 18.4528V2.50033C3.33398 2.27931 3.42178 2.06735 3.57806 1.91107C3.73434 1.75479 3.9463 1.66699 4.16732 1.66699Z" fill="#313131"/>
</g>
</svg>
